<?xml version="1.0" encoding="UTF-8"?>
<svg id="Layer_1" data-name="Layer 1" xmlns="http://www.w3.org/2000/svg" width="669.7462" height="349" viewBox="0 0 669.7462 349">
  <defs>
    <style>
      .cls-1, .cls-2 {
        fill: #fff;
      }

      .cls-2 {
        fill-rule: evenodd;
      }
    </style>
  </defs>
  <path class="cls-2" d="M334.9401,56.6556c4.9542-.2218,10.0846.262,15.2093,1.3233V.115h-30.5527v58.3544c5.083-.9919,10.2364-1.5848,15.3434-1.8138Z"/>
  <path class="cls-1" d="M574.9001.069l-32.0317-.069c17.8243,12.2839,43.5493,33.7636,64.983,63.7148l-109.0687-.0651c-15.8932-24.7748-36.438-46.492-59.9023-63.5807l-32.0164-.069c17.809,12.2839,43.5494,33.7636,64.9677,63.7148h-77.1165c-.7842-.9435-1.5975-1.8686-2.4632-2.7578-8.7512-8.9927-20.5026-13.943-33.0854-13.943h-48.584c-12.5942,0-24.3456,4.9542-33.0892,13.943-.8658.8893-1.6793,1.8144-2.4636,2.7578h-77.1152c21.4107-29.9512,47.1357-51.4308,64.9677-63.7148l-32.024.069c-23.4797,17.0887-44.0014,38.8059-59.8947,63.5807l-109.0687.0651C83.3284,33.7636,109.0457,12.2839,126.8777,0l-32.0394.069C39.1507,40.6105,0,106.3177,0,180.4734c0,68.3624,33.7099,129.5292,80.1636,168.473l31.5029.0153c-18.0236-17.2956-34.5988-34.4073-48.423-52.6147l106.992-.0383c12.7667,20.1616,28.4377,37.9783,45.9249,52.6378l31.5029.0153c-17.9393-17.219-34.4456-34.254-48.2314-52.86h88.53c6.8154,3.8347,14.5427,5.8824,22.6206,5.8824h9.0142v47.0159h30.5527v-47.0159h9.017c8.0762,0,15.8033-2.048,22.6188-5.8824h88.5291c-13.8089,18.606-30.2922,35.641-48.2391,52.86l31.4876-.0153c17.4872-14.6595,33.1735-32.4762,45.9402-52.6378l106.9844.0383c-13.8089,18.2075-30.3918,35.3192-48.4077,52.6147l31.5029-.0153c46.4536-38.9438,80.1636-100.1106,80.1636-168.473,0-74.1557-39.1508-139.8629-94.8461-180.4044ZM490.1541,94.4055c10.4525,20.3915,18.0543,44.2352,20.2612,70.7954h-48.0576v-14.9919c0-25.4453-20.6942-46.1471-46.128-46.1471l-1.295.0192c-.2375.0038-3.9312.1035-9.8854.2414.1379-5.9427.2375-9.644.2452-9.9045.0001-.0042,0-.0083,0-.0125h84.8595ZM359.1665,74.4785c5.1075,0,9.8701,2.0001,13.4066,5.6362,3.5365,3.6323,5.4063,8.4447,5.2684,13.4717-.0038.115-.2797,10.2226-.5594,24.4989l-.2835,14.284,14.284-.2835c14.2955-.2797,24.3724-.5518,24.9471-.5594,10.2916,0,18.6635,8.3796,18.6635,18.6826v48.584c0,5.0193-1.9387,9.7206-5.4561,13.2341-3.5135,3.5059-8.1956,5.4408-13.6441,5.4408h-.0153c-.1226-.0038-10.2188-.2797-24.4912-.5594l-14.2878-.2835.2874,14.2878c.2836,14.2878.5556,24.3687.5556,24.4146.1379,5.1151-1.7319,9.9276-5.2684,13.5599-3.5366,3.6323-8.2953,5.6323-13.4066,5.6323h-48.584c-5.1113,0-9.8738-2.0001-13.4104-5.6323-3.5327-3.6285-5.4025-8.4448-5.2684-13.4832.0038-.1226.2797-10.2188.5632-24.4874l.2874-14.2916-14.2917.2874c-14.2916.2835-24.3724.5555-24.9472.5632-10.2915,0-18.6634-8.3796-18.6634-18.6826v-48.584c0-10.2992,8.368-18.6788,19.0236-18.6788h.0077l1.0345.0269c2.7203.0728,11.6824.2988,23.5372.5364l14.2878.2874-.2835-14.2878c-.2337-11.9621-.4636-20.9624-.5326-23.61l-.0192-.8199c-.1418-5.1036,1.7319-9.916,5.2684-13.5522,3.5327-3.6323,8.2953-5.6324,13.4066-5.6324h48.584ZM179.5921,94.4055h84.8622l.0156.7787c.0383,1.41.1188,4.6285.2261,9.142-4.4484-.1034-7.6401-.1877-9.0769-.2222l-2.1036-.0421c-25.4338,0-46.1279,20.7018-46.1279,46.1471v14.9919h-48.072c2.2146-26.5602,9.824-50.4039,20.2765-70.7954ZM43.511,265.7866c-11.0731-20.8436-18.3378-43.6796-20.3148-70.0483h113.3754c1.8239,24.7748,8.0079,48.2545,17.5255,70.0176l-110.5861.0306ZM136.5715,165.2009H23.3111c2.1993-26.3994,9.7168-50.0093,20.0696-70.7954h111.1147c-9.824,22.1348-16.1001,45.7065-17.924,70.7954ZM179.6304,265.5031c-11.1345-20.8973-18.4604-43.3195-20.4298-69.7648h48.187v3.0547c0,25.4453,20.6942,46.1471,46.1279,46.1471l1.2951-.0191c.2375-.0038,3.9312-.1035,9.8892-.2414-.1418,5.9542-.2414,9.6593-.2491,9.9122-.1,3.7313.2476,7.3979.9993,10.9487l-85.8196-.0374ZM490.1158,265.5031l-85.8198.0376c.7525-3.5585,1.0997-7.2351.9985-10.9796-.0038-.2375-.1035-3.9312-.2414-9.8854,5.9581.1379,9.667.2375,9.9313.2452l1.2491.0153c12.3223,0,23.905-4.7818,32.6103-13.4756,8.7167-8.709,13.5139-20.311,13.5139-32.6677v-3.0547h48.1879c-1.9694,26.4453-9.2953,48.8675-20.4297,69.7648ZM626.3655,94.4055c10.3375,20.7861,17.8626,44.3961,20.0696,70.7954h-113.2604c-1.8238-25.0889-8.1229-48.6606-17.924-70.7954h111.1148ZM515.6492,265.7559c9.5176-21.7632,15.7017-45.2429,17.5255-70.0176h113.3677c-1.9694,26.3687-9.234,49.2047-20.3148,70.0483l-110.5784-.0306Z"/>
</svg>