<?xml version="1.0" encoding="UTF-8"?>
<svg id="Layer_1" data-name="Layer 1" xmlns="http://www.w3.org/2000/svg" width="702.6537" height="370.308" viewBox="0 0 702.6537 370.308">
  <defs>
    <style>
      .cls-1 {
        fill: #0b6695;
      }

      .cls-2 {
        fill: #c02026;
      }
    </style>
  </defs>
  <path class="cls-2" d="M318.8978,337.0083c-11.8131,0-22.8347-4.6395-31.0344-13.0636-8.1997-8.4256-12.5384-19.5695-12.2189-31.3783.0043-.1612.367-13.5457.7425-32.4648-18.9479.3756-32.3137.7353-32.4734.7397-.4001.0115-.7972.0158-1.1958.0158-23.8463,0-43.2461-19.4127-43.2461-43.2734v-64.859c0-23.8593,19.3983-43.2691,43.2432-43.2691.3986,0,.7987.0043,1.2002.0158.1612.0043,13.5457.367,32.4648.7425-.3756-18.9507-.7353-32.3137-.7397-32.4734-.3195-11.8088,4.0207-22.9527,12.2218-31.3768,8.1997-8.4256,19.2227-13.0651,31.0358-13.0651h64.8576c11.8145,0,22.8361,4.6409,31.0358,13.0665,8.1997,8.4241,12.5384,19.5681,12.2175,31.3783-.0043.1583-.3655,13.5443-.7425,32.4633,18.9522-.3756,32.3137-.7353,32.4734-.7397.4001-.0115.7987-.0158,1.1958-.0158,23.8463,0,43.2461,19.4127,43.2461,43.2734v64.859c0,11.6015-4.4984,22.4836-12.6664,30.6415-8.1522,8.1421-19.0112,12.6261-30.5739,12.6261h0c-.4001,0-.8015-.0043-1.2045-.0158-.1583-.0043-13.5428-.3655-32.4619-.7425.3756,18.9493.7353,32.3137.7397,32.4734.318,11.8102-4.0221,22.9541-12.2232,31.3783s-19.2227,13.0636-31.0358,13.0636h-64.8576Z"/>
  <rect class="cls-1" x="337.3596" width="27.8321" height="21.5105"/>
  <path class="cls-1" d="M209.6605,307.1744h55.8197c-1.1944-4.8122-1.7585-9.8194-1.6196-14.9289.0025-.0963.1349-5.0008.3216-13.0054h-69.6658c-10.3345-23.2274-16.8832-49.9337-18.4183-80.2215h11.5854v-27.8319h-11.5854c1.0304-25.5697,6.4653-50.7698,16.0647-74.4914h72.1406c-.2511-11.2982-.4447-18.5192-.4479-18.636-.0849-3.1455.1058-6.2503.5317-9.2981h-58.4107c17.8042-29.2645,42.2596-52.0826,69.9892-68.7612h-41.0314c-18.7252,13.302-41.2364,36.6317-58.7337,68.7612H63.5428C83.865,39.7738,110.9427,16.1731,142.4339,0h-43.3849C58.1198,24.5576,0,90.0445,0,185.1028s58.1198,160.5453,99.049,185.1028h43.3849c-28.0365-14.5299-54.4359-35.7108-74.6959-63.0312h111.7372c13.9303,24.678,32.8537,46.1802,55.5614,63.1335h41.0317c-25.9902-15.5532-49.013-36.5294-66.4078-63.1335ZM47.5803,96.6954h115.8298c-8.2885,21.7949-14.1206,46.7618-15.5532,74.5937H28.7526c1.4441-25.8403,7.8356-51.1632,18.8277-74.5937ZM50.3432,279.2401c-11.9721-23.4321-19.8509-50.2407-21.6926-80.2215h119.1042c1.4196,27.5463,7.4377,54.661,17.8042,80.2215H50.3432Z"/>
  <rect class="cls-1" x="337.4621" y="348.7974" width="27.8321" height="21.5105"/>
  <path class="cls-1" d="M603.6045,0h-43.3849c31.4823,16.1454,58.5326,39.7531,78.7889,68.7612h-112.5553c-17.4973-32.1296-40.0086-55.3569-58.8359-68.7612h-41.0317c28.5909,16.8665,52.6196,40.4736,69.9892,68.7612h-58.3125c.4263,3.0487.6163,6.1546.531,9.3012-.0032.1171-.1982,7.3449-.4501,18.633h72.2496c9.5628,23.7687,14.9959,48.9959,16.0647,74.5937h-11.6872v27.7297h11.6875c-1.5347,30.2877-8.0835,56.9941-18.5205,80.2214h-69.6597c.1864,8.0108.3177,12.9122.3202,13.008.1381,5.1087-.4263,10.115-1.6211,14.9263h55.8164c-17.3948,26.6041-40.4176,47.478-66.3053,63.1335h41.0314c17.7016-12.5859,38.5757-33.869,55.5614-63.1335h111.6347c-20.2599,27.218-46.5569,48.3989-74.6959,63.0312h43.3849c40.9292-24.5576,99.0492-90.1468,99.0492-185.1028,0-95.0583-58.1196-160.5452-99.0492-185.1028ZM655.0736,96.5931c11.0011,23.4327,17.4264,48.7507,18.9299,74.5937h-119.104c-1.4326-27.7296-7.265-52.6965-15.6557-74.5937h115.8298ZM652.2084,279.2401h-115.2157c9.6185-23.125,16.3716-49.9337,17.8042-80.2214h119.1044c-1.842,30.083-9.6185,56.7894-21.6928,80.2214Z"/>
</svg>