<?xml version="1.0" encoding="UTF-8"?>
<svg id="Layer_1" data-name="Layer 1" xmlns="http://www.w3.org/2000/svg" width="746.3745" height="233.529" viewBox="0 0 746.3745 233.529">
  <defs>
    <style>
      .cls-1 {
        fill: #fff;
      }
    </style>
  </defs>
  <path class="cls-1" d="M300.56,72.949l8.9347,3.247,65.6206,6.4703c23.2763-14.3001,46.7149-29.5075,72.3056-39.5176,10.5658-4.1329,22.9526-8.9175,34.2757-7.4798.7407-2.9689-.5629-2.1102-1.6189-2.9297-12.6995-9.855-27.824-16.7093-39.4872-27.8858,22.3107.3876,41.1573,1.9416,62.3366,8.9552,59.6455,19.7517,137.2083,57.823,179.1665,106.0509,1.906,2.1909,15.8084,19.632,14.1583,21.1602l-397.6753.0538c-23.6854-4.9092-74.056-10.8404-86.5207-34.248-11.5058-21.6068,20.7072-41.9947,36.2404-50.8156,9.675-5.4942,24.5874-10.3461,32.9927-15.8285.5292-.3452,1.6909-1.5976,1.275-1.9241-4.6252-.2664-8.7798-1.7385-13.5583-1.3917-6.4982.4717-24.0427,13.7762-30.5278,18.3192-30.9822,21.7037-67.9823,48.8379-78.1324,86.963l-121.8799,1.4413,14.073-18.6759c48.8731-39.6687,107.9051-69.1415,168.3497-86.682-.3711-2.2705-6.6918-1.4345-8.3997-1.3256-11.6453.7422-23.2494,1.2184-34.6369,1.5804-4.52.1437-9.799,2.027-14.77,1.0315,24.9907-23.6358,56.3269-30.1839,89.4656-34.5015,41.4309-5.398,110.8301-8.5278,150.7975,1.7395,9.011,2.3149,22.9883,7.13,17.6344,18.935-4.4994,9.9209-34.5598,19.2379-45.2497,22.8524-24.9038,8.4206-50.9304,13.9984-75.1695,24.4059ZM363.5031,88.364c-19.4096-2.7227-40.2099-2.5723-59.3619-6.8153-6.19-1.3714-12.4344-2.5544-16.4048-7.9726.001-2.6613,14.7162-9.367,17.6115-10.6202,29.6877-12.8495,65.3872-18.0244,94.5896-31.3171,8.4847-3.8622,23.4324-9.8755,7.9195-16.5478-5.277-2.2697-12.2957-3.1077-18.0246-3.8165-42.7638-5.2904-98.4264-2.9309-140.9133,4.2459-17.701,2.99-34.3821,7.4727-51.1402,13.7466-.3057,2.2359,2.9212,1.21,4.4758,1.2699,29.4301,1.1343,61.0519-5.18,90.6137,3.1854,3.1138.8811,8.3138,2.683,10.1297,5.3368,1.9924,2.6878,1.1047,5.3115-1.2344,7.4729-20.2493,10.3358-45.2114,18.7186-62.2728,34.0765-17.6629,15.8994-15.524,25.4174,5.3286,35.8513,19.6537,9.834,45.0066,13.6936,66.5065,17.8426l52.177-45.9385ZM683.4041,134.5959c.5792-2.2289-.9243-2.5667-1.9134-3.8559-25.6295-33.407-100.0551-75.7585-138.943-93.5986-20.858-9.5688-44.3886-19.9453-67.263-22.0094l48.1399,34.7087c25.8604,22.5697,56.8933,47.2282,62.5185,83.3062l97.4609,1.4491ZM542.0864,85.7813c-14.1877-15.9465-29.9185-30.7625-47.9946-42.2998-17.2953,13.1302-35.2214,25.8997-49.6473,42.2998h97.642ZM65.4394,135.8871h88.0063c15.0598-36.9971,50.9396-65.8124,83.727-87.1462.5864-.3816,4.1504-1.8018,2.3404-2.7991-36.3228,8.9584-71.8221,24.1341-104.7245,41.7386-24.3139,13.0092-50.1636,28.444-69.3491,48.2067ZM337.8091,134.6023h222.264c1.0901-6.8505-16.0129-42.1001-20.122-43.4738l-109.6451.4742-1.2717-3.2293,46.9006-39.8427c1.5202-1.4926.0988-1.5251-1.3065-1.3075-6.1082.9456-20.4646,7.6306-26.7915,10.474-39.6727,17.8293-80.6052,44.9836-110.0279,76.9051Z"/>
  <path class="cls-1" d="M743.1518,224.5357l3.2227,7.6965c-1.2932-.409-2.7599,1.2968-3.2227,1.2968H1.8436l-1.8436-2.0829,1.2012-6.9104h741.9505Z"/>
  <path class="cls-1" d="M710.3903,159.0128H29.466l4.427-6.4934,665.6536-1.292c5.0413-.5328,8.1717,4.2081,10.8437,7.7854Z"/>
  <path class="cls-1" d="M233.7433,212.9728c6.038-12.7963,7.6161-27.8891,10.1886-41.7961l18.0703-.5944-3.212,16.6892c4.3812-6.107,13.2929-8.2903,13.6286-16.5582l13.9995-.1254-13.705,13.4474c2.7314,7.3987,4.548,15.3779,7.9948,22.5038.7232,1.4952-.1924,3.1475,2.4855,2.5873l24.5599-38.6328,17.0798.2145,7.8368,42.2647h-20.5562l.0802-11.0024-15.4932.086-5.9217,10.9986-27.3671-.2044-3.9867-16.5786c-7.4878,2.6431-6.4845,9.8635-6.4106,16.7008h-19.2714ZM310.8337,194.9848l-1.9258-11.5556-7.0718,11.5447,8.9977.0108Z"/>
  <path class="cls-1" d="M616.6026,171.8604l1.9396,20.5625c2.6499.596,1.7615-1.1164,2.5397-2.5415,1.6867-3.0889,8.9712-17.8012,10.8611-18.6465l17.9784-.1424,2.6251,1.402c-5.7372,12.1129-8.5227,27.0909-8.9578,40.4847l-16.6235.7619-2.6254-1.4028,7.6679-26.3448-15.6537,26.7202-11.3403.9776c-.5423-.3885-2.5437-9.5438-2.5437-10.3541v-18.6291l-6.4179,28.2702-7.6344.7609-2.6253-1.4061c4.1104-5.8233,5.5371-15.2507,7.0569-22.4709,1.188-5.644,3.7235-12.7585,1.9121-18.0018h21.841Z"/>
  <path class="cls-1" d="M120.6633,194.9853l-3.8145-.001-2.5819,17.996-17.9811,1.2767c1.7451-12.14,7.195-25.0317,8.7323-37.0274.2299-1.7938.0444-3.2103-.9182-4.7554l1.7886-1.8542,39.8723,2.4927c3.2269,3.2009.108,16.5597-2.082,19.8159-1.4555,2.1641-4.9149,2.3321-5.0557,5.25l2.6612,15.4784-16.8224.0345-3.7986-18.7064ZM130.9647,178.2898l-10.3699.5475-2.4756,9.7169,11.4232-1.4157,1.4223-8.8488Z"/>
  <path class="cls-1" d="M581.52,208.7293c-5.1596,5.6524-36.8684,6.3461-40.8352,1.1484-3.5425-4.6418,2.3875-30.4513,6.4655-34.8804,6.3886-6.9386,31.796-5.6343,40.5223-1.8357,1.703,2.0384,2.0431,4.2942,1.888,6.8735-.2367,3.9366-5.8734,26.3199-8.0407,28.6942ZM566.3299,205.1008l4.7533-25.6113c-3.1318-2.5559-8.7806-1.2163-10.7696,2.2467-1.2739,2.218-4.9328,18.374-5.3327,21.671-.4476,3.6909,8.8244,1.3561,11.3489,1.6936Z"/>
  <path class="cls-1" d="M162.7779,170.9146c6.0221-.8992,30.3596-2.0872,33.0714,3.5095,1.8164,3.7486-3.4261,28.6009-5.9627,32.5926-2.4442,3.8462-7.636,5.4928-12.0243,5.9624-5.6947.6095-27.7793,1.2148-30.851-3.8406-2.1085-3.4702,3.2552-26.3132,5.144-30.8598,2.117-5.0956,5.389-6.5827,10.6226-7.3641ZM179.7861,178.2898c-3.7538.3686-8.9964-1.5178-11.4656,2.0215-1.5071,2.1603-6.1947,24.1003-5.2434,24.9523l11.6739-2.1295,5.0351-24.8444Z"/>
  <path class="cls-1" d="M441.5386,170.8818c5.8478-.9732,30.475-1.95,33.0975,3.5398,2.0666,4.3261-2.943,28.5261-5.7717,32.7793-2.7781,4.177-7.4622,5.2742-12.23,5.7567-7.3693.7458-27.4971,2.1084-30.5403-5.5093-1.2381-3.0992,3.4915-24.6739,5.2526-28.7717,2.1379-4.9745,4.7115-6.8828,10.1919-7.7948ZM458.583,178.2798l-10.9486,1.267-5.7621,25.7118c3.7527-.3689,8.9978,1.5179,11.4654-2.0215,1.5667-2.2471,6.3937-23.8762,5.2453-24.9574Z"/>
  <path class="cls-1" d="M360.9348,170.5757l-8.6996,32.8171c.5508,3.144,14.584,2.0064,17.7127,1.2488l2.2194-2.9196,5.463-31.1538,10.2842.0197c-6.4517,9.0873-4.9432,35.7713-14.9398,40.9348-4.0902,2.1127-25.372,2.1821-30.5852,1.3662-4.5068-.7054-6.861-3.4637-6.7395-8.0542.2597-9.8141,8.2772-23.3565,6.0134-34.2591h19.2714Z"/>
  <path class="cls-1" d="M540.8016,170.5757l-.0083,8.989-20.693-.5345-4.8643,24.1212c1.4369,4.3484,16.4528,1.4618,20.4203.8344l-3.1863,7.7216c-1.8255,1.8684-23.1051,1.7873-26.9271,1.1933-2.5089-.3899-6.1159-2.1291-6.8882-4.6671-1.8925-6.2192,4.8906-37.658,13.2398-37.658h28.9072Z"/>
  <path class="cls-1" d="M238.8823,170.5757l-1.2547,8.4302-17.3895-.7379c-1.7271.0387-2.3054.6843-2.9514,2.1889-1.1433,2.6628-4.6654,20.5378-3.9422,22.6969,1.3605,4.0615,15.3806,1.8902,19.1058.8303l-1.9077,7.7155c-.9354,1.4334-2.379,1.1715-3.7937,1.3452-5.0821.6238-24.2432.6456-27.6732-2.0206l-2.3501-2.797c-.3502-7.451,3.6684-37.6514,13.2496-37.6514h28.9072Z"/>
  <path class="cls-1" d="M427.734,179.5747c-.3752.5029-9.5353-3.6014-12.2302-.0361-.8678,1.1481-6.4874,25.2072-6.7521,27.9809-.191,2.002.8171,3.5565,1.0003,5.4448l-16.6135.7768-2.6253-1.4028,8.9825-33.3949-12.8642.6145,2.871-7.3982,37.6462-1.408,1.6052,2.702-1.0198,6.1209Z"/>
  <polygon class="cls-1" points="91.1346 187.2776 89.8499 194.9862 8.9098 194.9862 13.4065 187.2776 91.1346 187.2776"/>
  <path class="cls-1" d="M17.904,176.9862c1.7087-3.8079,2.5392-5.9759,7.003-6.473,20.338-2.2649,44.7978,1.828,65.6063.0417l4.4009,5.8251c-1.1219,1.8931-2.4652,1.7689-4.3583,1.9684-14.5615,1.5345-31.0562-1.6933-45.0274-1.46-3.4109.057-6.5853,1.555-10.2801,1.5136-5.4974-.0617-11.8101-1.044-17.3443-1.4158Z"/>
  <path class="cls-1" d="M660.2846,194.9862l2.0231-7.7864,65.3557.195c4.6074.2315,6.0182,3.2109,5.8527,7.5914h-73.2315Z"/>
  <path class="cls-1" d="M741.2246,212.9728h-82.8672c-.2827,0-1.417,1.9022-1.9147,1.2846l1.4525-7.533,78.8432-.1858,4.4863,6.4342Z"/>
  <path class="cls-1" d="M3.7707,212.9728l1.2848-6.4238h79.0129c.3822,0,.7951-1.2272,1.2847-1.2457l1.8908,1.8726-3.1755,5.7969H3.7707Z"/>
  <path class="cls-1" d="M723.2368,176.9864c-2.2195,2.2151-46.5238,1.3472-53.6618.9258-1.7976-.1061-2.6485.8714-4.1286-1.5556l4.7305-5.8073c8.6821,1.5562,44.9585-2.4813,49.9514,1.2086.8216.6072,3.3237,5.0136,3.1085,5.2285Z"/>
  <polygon class="cls-1" points="493.2649 201.4221 490.642 212.9155 473.9986 212.9648 476.6814 201.5307 493.2649 201.4221"/>
</svg>